{
  "accessors": [
    {
      "bufferView": 2,
      "componentType": 5126,
      "count": 9015,
      "max": [
        71.02459716796875,
        27.516700744628906,
        0.009600000455975533
      ],
      "min": [
        -73.90640258789063,
        -27.516700744628906,
        -52.01279830932617
      ],
      "type": "VEC3"
    },
    {
      "bufferView": 2,
      "byteOffset": 108180,
      "componentType": 5126,
      "count": 9015,
      "max": [
        1.0,
        1.0,
        1.0
      ],
      "min": [
        -1.0,
        -1.0,
        -1.0
      ],
      "type": "VEC3"
    },
    {
      "bufferView": 1,
      "componentType": 5126,
      "count": 9015,
      "max": [
        0.9980999827384949,
        2.0
      ],
      "min": [
        0.0019000000320374966,
        1.0039000511169434
      ],
      "type": "VEC2"
    },
    {
      "bufferView": 1,
      "byteOffset": 72120,
      "componentType": 5126,
      "count": 9015,
      "max": [
        0.9980999827384949,
        2.0
      ],
      "min": [
        0.0019000000320374966,
        1.0039000511169434
      ],
      "type": "VEC2"
    },
    {
      "bufferView": 1,
      "byteOffset": 144240,
      "componentType": 5126,
      "count": 9015,
      "max": [
        0.9980999827384949,
        2.0
      ],
      "min": [
        0.0019000000320374966,
        1.0039000511169434
      ],
      "type": "VEC2"
    },
    {
      "bufferView": 0,
      "componentType": 5125,
      "count": 21660,
      "type": "SCALAR"
    },
    {
      "bufferView": 2,
      "byteOffset": 216360,
      "componentType": 5126,
      "count": 73,
      "max": [
        38.62110137939453,
        17.04010009765625,
        -37.85900115966797
      ],
      "min": [
        18.070100784301758,
        -17.04010009765625,
        -47.70069885253906
      ],
      "type": "VEC3"
    },
    {
      "bufferView": 2,
      "byteOffset": 217236,
      "componentType": 5126,
      "count": 73,
      "max": [
        0.941794753074646,
        0.9949366450309753,
        -0.09124932438135147
      ],
      "min": [
        0.01369805820286274,
        -0.995050311088562,
        -0.3397282063961029
      ],
      "type": "VEC3"
    },
    {
      "bufferView": 1,
      "byteOffset": 216360,
      "componentType": 5126,
      "count": 73,
      "max": [
        0.1776999980211258,
        1.1125999689102173
      ],
      "min": [
        0.00019999999494757503,
        1.0717999935150146
      ],
      "type": "VEC2"
    },
    {
      "bufferView": 0,
      "byteOffset": 86640,
      "componentType": 5125,
      "count": 210,
      "type": "SCALAR"
    }
  ],
  "asset": {
    "extras": {
      "author": "javanilga (https://sketchfab.com/javanilga)",
      "license": "CC-BY-4.0 (http://creativecommons.org/licenses/by/4.0/)",
      "source": "https://sketchfab.com/3d-models/zil-130-f0eb399e57a249a7b7dd4058c64cf7b5",
      "title": "Zil 130"
    },
    "generator": "Sketchfab-15.47.0",
    "version": "2.0"
  },
  "bufferViews": [
    {
      "buffer": 0,
      "byteLength": 87480,
      "name": "floatBufferViews",
      "target": 34963
    },
    {
      "buffer": 0,
      "byteLength": 216944,
      "byteOffset": 87480,
      "byteStride": 8,
      "name": "floatBufferViews",
      "target": 34962
    },
    {
      "buffer": 0,
      "byteLength": 218112,
      "byteOffset": 304424,
      "byteStride": 12,
      "name": "floatBufferViews",
      "target": 34962
    }
  ],
  "buffers": [
    {
      "byteLength": 522536,
      "uri": "scene.bin"
    }
  ],
  "extensionsUsed": [
    "KHR_materials_specular"
  ],
  "images": [
    {
      "uri": "textures/Material__129_baseColor.png"
    }
  ],
  "materials": [
    {
      "doubleSided": true,
      "name": "Material__129",
      "pbrMetallicRoughness": {
        "baseColorTexture": {
          "index": 0
        },
        "roughnessFactor": 0.768182
      }
    },
    {
      "doubleSided": true,
      "extensions": {
        "KHR_materials_specular": {
          "specularColorFactor": [
            1.0,
            1.0,
            1.0
          ],
          "specularFactor": 0.4590043539841578
        }
      },
      "name": "23___Default",
      "pbrMetallicRoughness": {
        "metallicFactor": 0.5114619944394901,
        "roughnessFactor": 0.11511537766586814
      }
    }
  ],
  "meshes": [
    {
      "name": "Object_0",
      "primitives": [
        {
          "attributes": {
            "NORMAL": 1,
            "POSITION": 0,
            "TEXCOORD_0": 2,
            "TEXCOORD_1": 3,
            "TEXCOORD_2": 4
          },
          "indices": 5,
          "material": 0,
          "mode": 4
        }
      ]
    },
    {
      "name": "Object_1",
      "primitives": [
        {
          "attributes": {
            "NORMAL": 7,
            "POSITION": 6,
            "TEXCOORD_0": 8
          },
          "indices": 9,
          "material": 1,
          "mode": 4
        }
      ]
    }
  ],
  "nodes": [
    {
      "children": [
        1
      ],
      "matrix": [
        1.0,
        0.0,
        0.0,
        0.0,
        0.0,
        2.220446049250313e-16,
        -1.0,
        0.0,
        0.0,
        1.0,
        2.220446049250313e-16,
        0.0,
        0.0,
        0.0,
        0.0,
        1.0
      ],
      "name": "Sketchfab_model"
    },
    {
      "children": [
        2
      ],
      "name": "root"
    },
    {
      "children": [
        3
      ],
      "matrix": [
        1.0,
        0.0,
        0.0,
        0.0,
        0.0,
        2.220446049250313e-16,
        1.0,
        0.0,
        0.0,
        -1.0,
        2.220446049250313e-16,
        0.0,
        0.0,
        0.0,
        0.0,
        1.0
      ],
      "name": "GLTF_SceneRootNode"
    },
    {
      "children": [
        4,
        5
      ],
      "matrix": [
        0.047906357795000076,
        0.0,
        0.0,
        0.0,
        0.0,
        4.038203903047474e-09,
        0.04790635779499991,
        0.0,
        0.0,
        -0.04790635779499991,
        4.038203903047474e-09,
        0.0,
        0.0,
        0.0,
        0.0,
        1.0
      ],
      "name": "zil130_wg_2"
    },
    {
      "mesh": 0,
      "name": "Object_4"
    },
    {
      "mesh": 1,
      "name": "Object_5"
    }
  ],
  "samplers": [
    {
      "magFilter": 9729,
      "minFilter": 9987,
      "wrapS": 10497,
      "wrapT": 10497
    }
  ],
  "scene": 0,
  "scenes": [
    {
      "name": "Sketchfab_Scene",
      "nodes": [
        0
      ]
    }
  ],
  "textures": [
    {
      "sampler": 0,
      "source": 0
    }
  ]
}
